# xmcd
#
# Track frame offsets: 
#        150
#        47830
#        68174
#        107796
#        159570
#        313103
#        332636
#
# Disc length: 4639 seconds
#
# Revision: 2
# Processed by: cddbd v1.5.2PL0 Copyright (c) Steve Scherf et al.
# Submitted via: ExactAudioCopy v0.99pb3
#
DISCID=5e121d07
DTITLE=Tangerine Dream - In Search Of Hades 13 of 18
DYEAR=2019
DGENRE=Electronic
TTITLE0=Stratosfear
TTITLE1=The Big Sleep In Search Of Hades
TTITLE2=3am At The Border Of The Marsh From Okefenokee
TTITLE3=Invisible Limits
TTITLE4=Coventry Cathedral (The Original Film Soundtrack)
TTITLE5=Stratosfear [Single Edit]
TTITLE6=The Big Sleep In Search Of Hades [Single Edit]
EXTD=
EXTT0=
EXTT1=
EXTT2=
EXTT3=
EXTT4=
EXTT5=
EXTT6=
PLAYORDER=
